<?xml version="1.0" standalone="no"?>
<!DOCTYPE svg PUBLIC "-//W3C//DTD SVG 20010904//EN"
 "http://www.w3.org/TR/2001/REC-SVG-20010904/DTD/svg10.dtd">
<svg version="1.0" xmlns="http://www.w3.org/2000/svg"
 width="512.000000pt" height="512.000000pt" viewBox="0 0 512.000000 512.000000"
 preserveAspectRatio="xMidYMid meet">
<metadata>
Created by potrace 1.16, written by Peter Selinger 2001-2019
</metadata>
<g transform="translate(0.000000,512.000000) scale(0.100000,-0.100000)"
fill="#000000" stroke="none">
<path d="M0 2560 l0 -2560 2560 0 2560 0 0 2560 0 2560 -2560 0 -2560 0 0
-2560z m865 691 c77 -16 93 -17 110 -5 51 36 78 27 83 -25 4 -37 -43 -288 -60
-327 -13 -29 -50 -41 -82 -26 -18 8 -25 23 -34 76 -17 106 -67 156 -154 156
-148 -1 -258 -157 -258 -365 0 -158 73 -294 180 -338 61 -26 137 -31 165 -13
23 15 25 22 25 103 0 77 -3 93 -31 148 -40 78 -36 111 15 120 18 4 86 5 150 3
124 -3 136 -8 136 -56 0 -12 -11 -45 -25 -72 -24 -47 -25 -57 -25 -227 0 -98
-4 -184 -8 -191 -13 -20 -34 -6 -71 48 -19 28 -37 50 -41 50 -3 0 -19 -14 -36
-31 -50 -54 -117 -79 -209 -79 -167 0 -295 63 -383 189 -154 220 -127 559 60
745 127 126 276 161 493 117z m2696 -34 c39 -26 59 -60 59 -102 0 -61 -64
-126 -122 -125 -13 1 -47 14 -77 30 -61 33 -72 31 -117 -22 -58 -69 -143 -291
-249 -652 -35 -117 -54 -136 -135 -136 -72 0 -94 10 -115 50 -8 16 -45 122
-81 237 -41 131 -82 238 -110 290 -76 140 -65 153 119 153 73 0 138 -4 146 -9
13 -9 12 -38 -4 -117 -5 -22 7 -78 40 -195 26 -90 51 -168 55 -172 4 -4 22 43
40 105 100 347 204 553 319 632 85 59 174 72 232 33z m1141 3 c59 -46 63 -144
8 -192 -41 -37 -97 -38 -157 -2 -30 17 -52 24 -68 20 -44 -11 -121 -146 -174
-305 -38 -114 -49 -192 -42 -291 5 -63 11 -84 39 -124 35 -53 38 -67 22 -97
-10 -18 -23 -19 -176 -19 -162 0 -165 0 -173 23 -10 26 -8 35 27 107 25 52 27
63 27 200 0 144 0 147 -33 218 -45 97 -37 115 73 159 44 18 97 33 118 33 31 0
40 -5 56 -31 l19 -32 28 54 c72 142 163 252 237 284 49 22 139 19 169 -5z
m-2345 -275 c113 -34 193 -147 201 -284 6 -118 11 -115 -210 -121 -208 -6
-203 -2 -150 -89 64 -104 206 -115 304 -24 53 50 75 7 37 -70 -49 -98 -125
-148 -235 -155 -125 -8 -225 37 -301 136 -59 77 -86 220 -64 334 42 213 223
331 418 273z m1311 -11 c46 -19 98 -68 123 -116 25 -49 39 -148 39 -288 0
-138 11 -183 50 -212 65 -47 27 -98 -79 -106 -94 -6 -139 4 -172 39 l-27 29
-17 -26 c-56 -87 -241 -80 -311 11 -84 111 -31 296 106 368 50 26 63 28 138
25 l82 -3 0 40 c0 83 -40 165 -80 165 -8 0 -25 -7 -38 -15 -18 -14 -21 -22
-15 -60 5 -40 3 -47 -25 -74 -62 -63 -157 -27 -157 58 0 78 88 158 197 181 54
11 139 4 186 -16z m1182 -9 c102 -52 140 -142 140 -329 0 -177 11 -231 57
-278 33 -33 35 -40 25 -62 -15 -34 -72 -49 -167 -44 -71 3 -79 6 -104 34 l-28
31 -40 -37 c-84 -79 -224 -63 -299 35 -57 75 -41 211 36 298 58 66 123 91 223
85 l79 -5 -7 61 c-13 114 -49 159 -108 137 -25 -10 -27 -15 -27 -66 0 -72 -28
-105 -90 -105 -82 0 -118 85 -67 161 72 107 252 147 377 84z m-3434 4 c17 -19
19 -43 24 -258 5 -257 10 -282 63 -311 24 -13 30 -13 55 0 47 27 57 62 57 200
0 120 -2 127 -33 191 -36 74 -38 86 -17 116 18 26 161 83 209 83 62 0 66 -15
67 -265 1 -277 6 -315 47 -358 43 -44 43 -81 1 -103 -24 -12 -53 -15 -121 -12
-87 3 -90 4 -120 37 -30 33 -30 33 -44 12 -21 -30 -87 -61 -142 -68 -97 -11
-186 39 -225 127 -16 36 -21 77 -27 220 -6 166 -8 177 -33 220 -32 54 -34 94
-7 117 30 26 150 71 191 72 25 1 42 -6 55 -20z m-61 -984 l-7 -65 25 11 c32
15 74 4 82 -20 3 -10 1 -50 -5 -90 -7 -39 -9 -75 -5 -81 4 -6 -9 -10 -35 -10
-36 0 -40 2 -31 18 5 10 13 50 16 90 7 68 6 72 -12 72 -12 0 -25 -6 -31 -12
-16 -20 -32 -141 -20 -155 8 -10 0 -13 -37 -13 -37 0 -45 3 -37 13 12 14 46
235 40 263 -3 17 10 26 61 43 2 0 0 -28 -4 -64z m-472 36 c31 -12 44 -48 25
-67 -24 -24 -50 -7 -43 27 7 31 -10 40 -33 17 -24 -24 -13 -57 31 -89 72 -52
82 -102 31 -150 -32 -30 -133 -40 -153 -15 -22 26 -2 38 28 15 22 -16 32 -18
53 -10 33 12 52 45 44 74 -4 12 -29 39 -56 60 -57 43 -66 79 -27 114 36 33 61
39 100 24z m2612 -21 c0 -18 -6 -26 -23 -28 -27 -4 -40 22 -22 44 19 22 45 13
45 -16z m1059 4 c4 -9 -5 -26 -22 -43 -25 -26 -26 -29 -13 -53 12 -21 12 -30
1 -57 -15 -37 -35 -49 -93 -59 -27 -5 -42 -13 -42 -22 0 -12 11 -14 45 -12 57
4 86 -15 77 -50 -4 -13 -18 -30 -32 -36 -37 -17 -101 -15 -119 4 -21 21 -10
40 12 21 36 -30 102 -31 102 -1 0 10 -14 14 -49 14 -56 0 -82 18 -74 50 3 11
14 25 24 31 17 9 18 12 4 25 -39 39 3 124 62 124 15 0 38 3 50 6 18 5 20 9 11
24 -9 14 -9 22 1 34 17 21 47 21 55 0z m-2583 -75 c48 -25 47 -117 -1 -169
-22 -24 -36 -30 -69 -30 -58 0 -81 26 -81 91 0 45 4 55 34 85 36 36 78 44 117
23z m549 -16 c18 -23 21 -37 17 -77 -4 -40 -11 -55 -37 -79 -28 -25 -39 -28
-72 -24 l-40 5 4 -49 3 -49 -45 0 c-25 0 -40 4 -33 8 12 7 47 220 41 250 -4
20 35 36 99 40 35 2 44 -2 63 -25z m550 0 c18 -23 21 -37 17 -77 -4 -40 -11
-55 -37 -79 -28 -25 -39 -28 -72 -24 l-40 5 4 -49 3 -49 -45 0 c-25 0 -40 4
-33 8 12 7 47 220 41 250 -4 20 35 36 99 40 35 2 44 -2 63 -25z m410 -62 c-7
-45 -10 -90 -7 -101 5 -18 0 -20 -41 -20 -26 0 -42 4 -35 8 14 9 36 136 28
161 -4 12 4 19 27 27 18 5 34 9 36 8 2 -1 -2 -39 -8 -83z m438 81 c57 22 67 6
67 -106 l0 -96 -44 0 c-34 0 -41 3 -33 13 6 7 16 44 22 81 11 72 5 94 -24 83
-23 -9 -37 -52 -39 -119 l-2 -58 -38 0 c-34 0 -37 2 -27 19 5 11 11 52 12 93
3 71 4 73 33 83 17 6 32 7 36 3 3 -4 20 -2 37 4z"/>
<path d="M2229 2825 c-36 -20 -76 -116 -62 -151 8 -22 179 -20 187 2 18 46 -7
134 -42 153 -27 14 -51 13 -83 -4z"/>
<path d="M3514 2541 c-35 -21 -54 -65 -54 -123 0 -72 74 -114 119 -69 25 25
33 68 29 146 -3 59 -4 60 -33 63 -17 1 -44 -6 -61 -17z"/>
<path d="M4664 2526 c-31 -31 -34 -39 -34 -93 0 -50 4 -63 24 -82 48 -45 113
-6 116 69 1 19 2 59 1 88 l-1 52 -36 0 c-28 0 -44 -8 -70 -34z"/>
<path d="M4420 1854 c-17 -43 -9 -84 16 -84 19 0 34 33 34 74 0 29 -4 36 -20
36 -13 0 -24 -10 -30 -26z"/>
<path d="M1907 1877 c-37 -28 -51 -143 -21 -167 13 -11 19 -10 37 8 27 28 38
141 15 160 -11 9 -18 9 -31 -1z"/>
<path d="M2422 1853 c-6 -10 -12 -43 -14 -73 l-3 -55 30 0 c26 0 32 5 45 42
10 31 11 50 4 70 -11 34 -48 43 -62 16z"/>
<path d="M2971 1852 c-5 -9 -11 -42 -13 -72 -2 -46 0 -55 15 -58 43 -9 82 73
58 124 -12 28 -46 32 -60 6z"/>
</g>
</svg>
